<svg xmlns="http://www.w3.org/2000/svg" xmlns:xlink="http://www.w3.org/1999/xlink" version="1.1" width="1000" height="1000" viewBox="0 0 1000 1000" xml:space="preserve">
<desc>Created with Fabric.js 3.5.0</desc>
<defs>
</defs>
<rect x="0" y="0" width="100%" height="100%" fill="#ffffff"/>
<g transform="matrix(1.7756 0 0 1.7756 500.0108 500.0045)" id="652156">
<path style="stroke: none; stroke-width: 1; stroke-dasharray: none; stroke-linecap: butt; stroke-dashoffset: 0; stroke-linejoin: miter; stroke-miterlimit: 4; is-custom-font: none; font-file-url: none; fill: rgb(59,211,53); fill-rule: nonzero; opacity: 1;" vector-effect="non-scaling-stroke" transform=" translate(-256.0015, -106.7783)" d="M 83.89 0 h 293.09 c 23.07 0 44.06 9.44 59.26 24.64 a 84.708 84.708 0 0 1 17.9 26.4 c -4.38 -0.66 -8.66 0.17 -12.33 2.11 a 72.311 72.311 0 0 0 -14.13 -19.96 c -13.01 -13.01 -30.96 -21.09 -50.7 -21.09 H 83.89 c -19.73 0 -37.68 8.08 -50.7 21.09 C 20.18 46.21 12.1 64.16 12.1 83.89 c 0 19.74 8.08 37.69 21.09 50.71 c 13.02 13.01 30.97 21.09 50.7 21.09 h 293.09 c 1.98 0 3.95 -0.08 5.9 -0.24 l -1.39 1 c -0.82 0.49 -1.59 1.06 -2.32 1.71 a 20.139 20.139 0 0 0 -6.27 9.63 H 83.89 c -23.07 0 -44.05 -9.44 -59.25 -24.64 C 9.44 127.95 0 106.97 0 83.89 c 0 -23.07 9.44 -44.05 24.64 -59.25 C 39.84 9.44 60.82 0 83.89 0 z M 99.1 106.72 l 2.12 -11.95 c 4.65 1.16 8.82 1.74 12.53 1.74 c 3.71 0 6.7 -0.15 8.97 -0.45 v -4.33 l -6.81 -0.6 c -6.16 -0.56 -10.38 -2.03 -12.68 -4.43 c -2.3 -2.4 -3.44 -5.95 -3.44 -10.64 c 0 -6.46 1.4 -10.9 4.2 -13.32 c 2.8 -2.43 7.55 -3.64 14.27 -3.64 c 6.71 0 12.76 0.64 18.17 1.9 l -1.9 11.57 c -4.69 -0.76 -8.45 -1.14 -11.28 -1.14 c -2.82 0 -5.22 0.13 -7.19 0.38 v 4.25 l 5.45 0.53 c 6.61 0.66 11.18 2.23 13.71 4.73 c 2.52 2.5 3.78 5.97 3.78 10.41 c 0 3.18 -0.43 5.87 -1.29 8.07 c -0.86 2.19 -1.88 3.86 -3.06 4.99 c -1.19 1.14 -2.87 2.01 -5.04 2.61 c -2.17 0.61 -4.07 0.97 -5.71 1.1 c -1.65 0.13 -3.83 0.19 -6.55 0.19 c -6.56 0 -12.64 -0.65 -18.25 -1.97 z m 61.29 -46.48 v 35.5 h 5.37 c 1.92 0 3.23 -0.23 3.94 -0.71 s 1.06 -1.58 1.06 -3.3 V 60.24 h 15.14 v 26.57 c 0 4.29 -0.28 7.75 -0.83 10.37 c -0.56 2.63 -1.59 4.85 -3.1 6.67 c -1.52 1.81 -3.59 3.07 -6.21 3.78 c -2.63 0.71 -6.03 1.06 -10.22 1.06 s -7.59 -0.35 -10.18 -1.06 c -2.61 -0.71 -4.66 -1.97 -6.18 -3.78 c -1.51 -1.82 -2.54 -4.04 -3.1 -6.67 c -0.56 -2.62 -0.83 -6.08 -0.83 -10.37 V 60.24 h 15.14 z m 33.65 47.32 V 60.24 h 24.53 c 4.54 0 7.79 0.88 9.73 2.65 c 1.94 1.76 2.91 4.34 2.91 7.72 s -0.62 5.99 -1.85 7.84 c -1.24 1.84 -2.89 3.04 -4.96 3.59 v 0.46 c 6.11 1.06 9.16 5.22 9.16 12.49 c 0 3.78 -1.01 6.83 -3.03 9.12 c -2.02 2.3 -5.12 3.45 -9.31 3.45 h -27.18 z m 21.05 -19.12 h -6.45 v 8.26 h 6.37 c 2.12 0 3.18 -1.56 3.18 -4.13 c 0 -2.58 -1.04 -4.13 -3.1 -4.13 z m -1.14 -18.1 h -5.31 v 7.58 h 5.23 c 1.92 0 2.88 -1.71 2.88 -4.06 c 0 -2.34 -0.94 -3.52 -2.8 -3.52 z m 40.54 37.22 h -15.82 l 2.88 -47.32 h 19.76 l 5.9 24.07 h 0.53 l 5.91 -24.07 h 19.76 l 2.87 47.32 h -15.82 l -0.91 -22.94 h -0.53 l -5.75 22.94 h -11.58 l -5.83 -22.94 h -0.46 l -0.91 22.94 z m 49.17 0 V 60.24 h 15.15 v 47.32 h -15.15 z m 58.11 -35.21 h -10.98 v 35.21 h -15.14 V 72.35 h -10.98 V 60.24 h 37.1 v 12.11 z m 124.38 140.33 c -0.66 0.37 -1.35 0.63 -2.05 0.76 l -0.14 0.02 c -0.72 0.12 -1.44 0.13 -2.14 0.02 c -0.81 -0.13 -1.62 -0.42 -2.33 -0.85 c -0.69 -0.41 -1.32 -0.98 -1.82 -1.66 l -14.21 -19.59 l -9.88 13.66 c -0.81 1.12 -1.7 2.13 -2.62 2.97 c -5.89 5.4 -13.19 4.03 -14.71 -4.67 l -13.71 -85.48 c -0.8 -3.81 3.07 -6.84 6.62 -5.28 c 21.13 8.44 55.52 28.19 77.32 40.06 c 10.47 5.74 4.26 14.41 -3.82 16.96 c -4.9 1.87 -11 3.47 -16.1 5.09 l 14.17 19.73 c 0.46 0.67 0.79 1.41 0.96 2.17 c 0.18 0.82 0.2 1.66 0.07 2.47 c -0.13 0.79 -0.41 1.58 -0.82 2.29 a 6.52 6.52 0 0 1 -1.58 1.83 c -3.81 2.71 -9.39 7.43 -13.21 9.5 z m -3.11 -6.62 l 11.29 -8.16 c -3.66 -5 -16.04 -20.13 -17.75 -24.64 c -0.6 -1.89 0.48 -3.94 2.37 -4.53 c 6.86 -2.12 14.04 -4.01 20.97 -5.97 c 1.59 -0.51 3.01 -1.19 4.09 -2.49 c -0.55 -0.56 -0.88 -0.82 -1.58 -1.21 l -71.17 -36.94 l 12.66 78.99 c 0.04 0.22 0.46 1.92 0.56 2.03 c 1.69 -1.01 2.53 -1.64 3.74 -3.3 c 2.46 -3.67 9.66 -16.04 12.48 -18.17 c 1.61 -1.1 3.84 -0.74 4.99 0.85 l 17.35 23.54 z M 419.42 94.43 c 1.7 2.36 1.12 5.6 -1.17 7.26 c -2.36 1.7 -5.6 1.12 -7.26 -1.17 L 398.7 83.5 a 5.2 5.2 0 0 1 1.17 -7.26 a 5.211 5.211 0 0 1 7.26 1.18 l 12.29 17.01 z m -13.25 62.6 a 5.2 5.2 0 0 1 7.26 1.17 c 1.69 2.35 1.12 5.59 -1.18 7.25 l -17.01 12.29 a 5.2 5.2 0 0 1 -7.26 -1.17 c -1.7 -2.35 -1.12 -5.6 1.17 -7.26 l 17.02 -12.28 z m -6.18 -33.92 c 2.83 0.45 4.77 3.13 4.31 5.96 c -0.46 2.83 -3.14 4.77 -5.96 4.31 l -20.68 -3.39 c -2.83 -0.45 -4.76 -3.13 -4.31 -5.96 c 0.46 -2.83 3.14 -4.76 5.97 -4.31 l 20.67 3.39 z m 79.79 -6.41 c -2.35 1.69 -5.6 1.12 -7.26 -1.18 c -1.7 -2.35 -1.12 -5.59 1.17 -7.25 l 17.02 -12.28 c 2.36 -1.71 5.6 -1.13 7.26 1.16 a 5.211 5.211 0 0 1 -1.18 7.26 l -17.01 12.29 z m -26.74 -24.24 c -0.45 2.83 -3.14 4.77 -5.96 4.31 c -2.83 -0.45 -4.77 -3.14 -4.31 -5.96 l 3.29 -20.69 c 0.46 -2.83 3.14 -4.77 5.97 -4.31 c 2.83 0.46 4.76 3.14 4.3 5.96 l -3.29 20.69 z" stroke-linecap="round"/>
</g>
</svg>